<mxfile host="app.diagrams.net" modified="2023-07-25T08:04:44.891Z" agent="Mozilla/5.0 (Windows NT 10.0; Win64; x64) AppleWebKit/537.36 (KHTML, like Gecko) Chrome/84.0.4147.125 Safari/537.36" etag="yAGE5J6SlxCGlLLTzrfT" version="21.6.3" type="github">
  <diagram name="第 1 页" id="V-5El9NdAYudc2t81AwE">
    <mxGraphModel dx="2261" dy="747" grid="0" gridSize="10" guides="1" tooltips="1" connect="1" arrows="1" fold="1" page="1" pageScale="1" pageWidth="827" pageHeight="1169" math="0" shadow="0">
      <root>
        <mxCell id="0" />
        <mxCell id="1" parent="0" />
        <mxCell id="VrlO5k5-_3cySzWohYTz-33" value="" style="group" vertex="1" connectable="0" parent="1">
          <mxGeometry x="-420" y="450" width="299" height="58" as="geometry" />
        </mxCell>
        <mxCell id="VrlO5k5-_3cySzWohYTz-31" value="&lt;font face=&quot;Consolas&quot;&gt;&lt;span style=&quot;font-size: 20px;&quot;&gt;vec4[length] outData&lt;/span&gt;&lt;/font&gt;" style="text;html=1;strokeColor=none;fillColor=none;align=center;verticalAlign=middle;whiteSpace=wrap;rounded=0;" vertex="1" parent="VrlO5k5-_3cySzWohYTz-33">
          <mxGeometry y="28" width="299" height="30" as="geometry" />
        </mxCell>
        <mxCell id="VrlO5k5-_3cySzWohYTz-32" value="&lt;font style=&quot;font-size: 13px;&quot; face=&quot;Consolas&quot;&gt;长度为length的vex4数组&lt;/font&gt;" style="text;html=1;strokeColor=none;fillColor=none;align=center;verticalAlign=middle;whiteSpace=wrap;rounded=0;" vertex="1" parent="VrlO5k5-_3cySzWohYTz-33">
          <mxGeometry x="77.5" width="160.5" height="30" as="geometry" />
        </mxCell>
        <mxCell id="VrlO5k5-_3cySzWohYTz-131" value="" style="shape=table;startSize=0;container=1;collapsible=0;childLayout=tableLayout;fontSize=16;fillColor=#d5e8d4;strokeColor=#82b366;fontFamily=Consolas;" vertex="1" parent="1">
          <mxGeometry x="20" y="80" width="340" height="594" as="geometry" />
        </mxCell>
        <mxCell id="VrlO5k5-_3cySzWohYTz-301" style="shape=tableRow;horizontal=0;startSize=0;swimlaneHead=0;swimlaneBody=0;strokeColor=inherit;top=0;left=0;bottom=0;right=0;collapsible=0;dropTarget=0;fillColor=none;points=[[0,0.5],[1,0.5]];portConstraint=eastwest;fontSize=16;" vertex="1" parent="VrlO5k5-_3cySzWohYTz-131">
          <mxGeometry width="340" height="28" as="geometry" />
        </mxCell>
        <mxCell id="VrlO5k5-_3cySzWohYTz-302" value="&lt;font style=&quot;font-size: 11px;&quot; face=&quot;Consolas&quot;&gt;r0&lt;/font&gt;" style="shape=partialRectangle;html=1;whiteSpace=wrap;connectable=0;strokeColor=inherit;overflow=hidden;fillColor=none;top=0;left=0;bottom=0;right=0;pointerEvents=1;fontSize=16;" vertex="1" parent="VrlO5k5-_3cySzWohYTz-301">
          <mxGeometry width="340" height="28" as="geometry">
            <mxRectangle width="340" height="28" as="alternateBounds" />
          </mxGeometry>
        </mxCell>
        <mxCell id="VrlO5k5-_3cySzWohYTz-288" style="shape=tableRow;horizontal=0;startSize=0;swimlaneHead=0;swimlaneBody=0;strokeColor=inherit;top=0;left=0;bottom=0;right=0;collapsible=0;dropTarget=0;fillColor=none;points=[[0,0.5],[1,0.5]];portConstraint=eastwest;fontSize=16;" vertex="1" parent="VrlO5k5-_3cySzWohYTz-131">
          <mxGeometry y="28" width="340" height="26" as="geometry" />
        </mxCell>
        <mxCell id="VrlO5k5-_3cySzWohYTz-289" value="&lt;font style=&quot;font-size: 12px;&quot;&gt;r1&lt;/font&gt;" style="shape=partialRectangle;html=1;whiteSpace=wrap;connectable=0;strokeColor=inherit;overflow=hidden;fillColor=none;top=0;left=0;bottom=0;right=0;pointerEvents=1;fontSize=16;" vertex="1" parent="VrlO5k5-_3cySzWohYTz-288">
          <mxGeometry width="340" height="26" as="geometry">
            <mxRectangle width="340" height="26" as="alternateBounds" />
          </mxGeometry>
        </mxCell>
        <mxCell id="VrlO5k5-_3cySzWohYTz-275" style="shape=tableRow;horizontal=0;startSize=0;swimlaneHead=0;swimlaneBody=0;strokeColor=inherit;top=0;left=0;bottom=0;right=0;collapsible=0;dropTarget=0;fillColor=none;points=[[0,0.5],[1,0.5]];portConstraint=eastwest;fontSize=16;" vertex="1" parent="VrlO5k5-_3cySzWohYTz-131">
          <mxGeometry y="54" width="340" height="26" as="geometry" />
        </mxCell>
        <mxCell id="VrlO5k5-_3cySzWohYTz-276" value="&lt;font style=&quot;font-size: 11px;&quot;&gt;r2&lt;/font&gt;" style="shape=partialRectangle;html=1;whiteSpace=wrap;connectable=0;strokeColor=inherit;overflow=hidden;fillColor=none;top=0;left=0;bottom=0;right=0;pointerEvents=1;fontSize=16;" vertex="1" parent="VrlO5k5-_3cySzWohYTz-275">
          <mxGeometry width="340" height="26" as="geometry">
            <mxRectangle width="340" height="26" as="alternateBounds" />
          </mxGeometry>
        </mxCell>
        <mxCell id="VrlO5k5-_3cySzWohYTz-262" style="shape=tableRow;horizontal=0;startSize=0;swimlaneHead=0;swimlaneBody=0;strokeColor=inherit;top=0;left=0;bottom=0;right=0;collapsible=0;dropTarget=0;fillColor=none;points=[[0,0.5],[1,0.5]];portConstraint=eastwest;fontSize=16;" vertex="1" parent="VrlO5k5-_3cySzWohYTz-131">
          <mxGeometry y="80" width="340" height="20" as="geometry" />
        </mxCell>
        <mxCell id="VrlO5k5-_3cySzWohYTz-263" value="r3" style="shape=partialRectangle;html=1;whiteSpace=wrap;connectable=0;strokeColor=inherit;overflow=hidden;fillColor=none;top=0;left=0;bottom=0;right=0;pointerEvents=1;fontSize=16;" vertex="1" parent="VrlO5k5-_3cySzWohYTz-262">
          <mxGeometry width="340" height="20" as="geometry">
            <mxRectangle width="340" height="20" as="alternateBounds" />
          </mxGeometry>
        </mxCell>
        <mxCell id="VrlO5k5-_3cySzWohYTz-249" style="shape=tableRow;horizontal=0;startSize=0;swimlaneHead=0;swimlaneBody=0;strokeColor=inherit;top=0;left=0;bottom=0;right=0;collapsible=0;dropTarget=0;fillColor=none;points=[[0,0.5],[1,0.5]];portConstraint=eastwest;fontSize=16;" vertex="1" parent="VrlO5k5-_3cySzWohYTz-131">
          <mxGeometry y="100" width="340" height="28" as="geometry" />
        </mxCell>
        <mxCell id="VrlO5k5-_3cySzWohYTz-250" style="shape=partialRectangle;html=1;whiteSpace=wrap;connectable=0;strokeColor=inherit;overflow=hidden;fillColor=none;top=0;left=0;bottom=0;right=0;pointerEvents=1;fontSize=16;" vertex="1" parent="VrlO5k5-_3cySzWohYTz-249">
          <mxGeometry width="340" height="28" as="geometry">
            <mxRectangle width="340" height="28" as="alternateBounds" />
          </mxGeometry>
        </mxCell>
        <mxCell id="VrlO5k5-_3cySzWohYTz-236" style="shape=tableRow;horizontal=0;startSize=0;swimlaneHead=0;swimlaneBody=0;strokeColor=inherit;top=0;left=0;bottom=0;right=0;collapsible=0;dropTarget=0;fillColor=none;points=[[0,0.5],[1,0.5]];portConstraint=eastwest;fontSize=16;" vertex="1" parent="VrlO5k5-_3cySzWohYTz-131">
          <mxGeometry y="128" width="340" height="21" as="geometry" />
        </mxCell>
        <mxCell id="VrlO5k5-_3cySzWohYTz-237" style="shape=partialRectangle;html=1;whiteSpace=wrap;connectable=0;strokeColor=inherit;overflow=hidden;fillColor=none;top=0;left=0;bottom=0;right=0;pointerEvents=1;fontSize=16;" vertex="1" parent="VrlO5k5-_3cySzWohYTz-236">
          <mxGeometry width="340" height="21" as="geometry">
            <mxRectangle width="340" height="21" as="alternateBounds" />
          </mxGeometry>
        </mxCell>
        <mxCell id="VrlO5k5-_3cySzWohYTz-223" style="shape=tableRow;horizontal=0;startSize=0;swimlaneHead=0;swimlaneBody=0;strokeColor=inherit;top=0;left=0;bottom=0;right=0;collapsible=0;dropTarget=0;fillColor=none;points=[[0,0.5],[1,0.5]];portConstraint=eastwest;fontSize=16;" vertex="1" parent="VrlO5k5-_3cySzWohYTz-131">
          <mxGeometry y="149" width="340" height="23" as="geometry" />
        </mxCell>
        <mxCell id="VrlO5k5-_3cySzWohYTz-224" style="shape=partialRectangle;html=1;whiteSpace=wrap;connectable=0;strokeColor=inherit;overflow=hidden;fillColor=none;top=0;left=0;bottom=0;right=0;pointerEvents=1;fontSize=16;" vertex="1" parent="VrlO5k5-_3cySzWohYTz-223">
          <mxGeometry width="340" height="23" as="geometry">
            <mxRectangle width="340" height="23" as="alternateBounds" />
          </mxGeometry>
        </mxCell>
        <mxCell id="VrlO5k5-_3cySzWohYTz-210" style="shape=tableRow;horizontal=0;startSize=0;swimlaneHead=0;swimlaneBody=0;strokeColor=inherit;top=0;left=0;bottom=0;right=0;collapsible=0;dropTarget=0;fillColor=none;points=[[0,0.5],[1,0.5]];portConstraint=eastwest;fontSize=16;" vertex="1" parent="VrlO5k5-_3cySzWohYTz-131">
          <mxGeometry y="172" width="340" height="28" as="geometry" />
        </mxCell>
        <mxCell id="VrlO5k5-_3cySzWohYTz-211" style="shape=partialRectangle;html=1;whiteSpace=wrap;connectable=0;strokeColor=inherit;overflow=hidden;fillColor=none;top=0;left=0;bottom=0;right=0;pointerEvents=1;fontSize=16;" vertex="1" parent="VrlO5k5-_3cySzWohYTz-210">
          <mxGeometry width="340" height="28" as="geometry">
            <mxRectangle width="340" height="28" as="alternateBounds" />
          </mxGeometry>
        </mxCell>
        <mxCell id="VrlO5k5-_3cySzWohYTz-197" style="shape=tableRow;horizontal=0;startSize=0;swimlaneHead=0;swimlaneBody=0;strokeColor=inherit;top=0;left=0;bottom=0;right=0;collapsible=0;dropTarget=0;fillColor=none;points=[[0,0.5],[1,0.5]];portConstraint=eastwest;fontSize=16;" vertex="1" parent="VrlO5k5-_3cySzWohYTz-131">
          <mxGeometry y="200" width="340" height="23" as="geometry" />
        </mxCell>
        <mxCell id="VrlO5k5-_3cySzWohYTz-198" style="shape=partialRectangle;html=1;whiteSpace=wrap;connectable=0;strokeColor=inherit;overflow=hidden;fillColor=none;top=0;left=0;bottom=0;right=0;pointerEvents=1;fontSize=16;" vertex="1" parent="VrlO5k5-_3cySzWohYTz-197">
          <mxGeometry width="340" height="23" as="geometry">
            <mxRectangle width="340" height="23" as="alternateBounds" />
          </mxGeometry>
        </mxCell>
        <mxCell id="VrlO5k5-_3cySzWohYTz-132" value="" style="shape=tableRow;horizontal=0;startSize=0;swimlaneHead=0;swimlaneBody=0;strokeColor=inherit;top=0;left=0;bottom=0;right=0;collapsible=0;dropTarget=0;fillColor=none;points=[[0,0.5],[1,0.5]];portConstraint=eastwest;fontSize=16;" vertex="1" parent="VrlO5k5-_3cySzWohYTz-131">
          <mxGeometry y="223" width="340" height="19" as="geometry" />
        </mxCell>
        <mxCell id="VrlO5k5-_3cySzWohYTz-182" style="shape=partialRectangle;html=1;whiteSpace=wrap;connectable=0;strokeColor=inherit;overflow=hidden;fillColor=none;top=0;left=0;bottom=0;right=0;pointerEvents=1;fontSize=16;" vertex="1" parent="VrlO5k5-_3cySzWohYTz-132">
          <mxGeometry width="340" height="19" as="geometry">
            <mxRectangle width="340" height="19" as="alternateBounds" />
          </mxGeometry>
        </mxCell>
        <mxCell id="VrlO5k5-_3cySzWohYTz-572" style="shape=tableRow;horizontal=0;startSize=0;swimlaneHead=0;swimlaneBody=0;strokeColor=inherit;top=0;left=0;bottom=0;right=0;collapsible=0;dropTarget=0;fillColor=none;points=[[0,0.5],[1,0.5]];portConstraint=eastwest;fontSize=16;" vertex="1" parent="VrlO5k5-_3cySzWohYTz-131">
          <mxGeometry y="242" width="340" height="24" as="geometry" />
        </mxCell>
        <mxCell id="VrlO5k5-_3cySzWohYTz-573" style="shape=partialRectangle;html=1;whiteSpace=wrap;connectable=0;strokeColor=inherit;overflow=hidden;fillColor=none;top=0;left=0;bottom=0;right=0;pointerEvents=1;fontSize=16;" vertex="1" parent="VrlO5k5-_3cySzWohYTz-572">
          <mxGeometry width="340" height="24" as="geometry">
            <mxRectangle width="340" height="24" as="alternateBounds" />
          </mxGeometry>
        </mxCell>
        <mxCell id="VrlO5k5-_3cySzWohYTz-574" style="shape=tableRow;horizontal=0;startSize=0;swimlaneHead=0;swimlaneBody=0;strokeColor=inherit;top=0;left=0;bottom=0;right=0;collapsible=0;dropTarget=0;fillColor=none;points=[[0,0.5],[1,0.5]];portConstraint=eastwest;fontSize=16;" vertex="1" parent="VrlO5k5-_3cySzWohYTz-131">
          <mxGeometry y="266" width="340" height="25" as="geometry" />
        </mxCell>
        <mxCell id="VrlO5k5-_3cySzWohYTz-575" style="shape=partialRectangle;html=1;whiteSpace=wrap;connectable=0;strokeColor=inherit;overflow=hidden;fillColor=none;top=0;left=0;bottom=0;right=0;pointerEvents=1;fontSize=16;" vertex="1" parent="VrlO5k5-_3cySzWohYTz-574">
          <mxGeometry width="340" height="25" as="geometry">
            <mxRectangle width="340" height="25" as="alternateBounds" />
          </mxGeometry>
        </mxCell>
        <mxCell id="VrlO5k5-_3cySzWohYTz-576" style="shape=tableRow;horizontal=0;startSize=0;swimlaneHead=0;swimlaneBody=0;strokeColor=inherit;top=0;left=0;bottom=0;right=0;collapsible=0;dropTarget=0;fillColor=none;points=[[0,0.5],[1,0.5]];portConstraint=eastwest;fontSize=16;" vertex="1" parent="VrlO5k5-_3cySzWohYTz-131">
          <mxGeometry y="291" width="340" height="23" as="geometry" />
        </mxCell>
        <mxCell id="VrlO5k5-_3cySzWohYTz-577" style="shape=partialRectangle;html=1;whiteSpace=wrap;connectable=0;strokeColor=inherit;overflow=hidden;fillColor=none;top=0;left=0;bottom=0;right=0;pointerEvents=1;fontSize=16;" vertex="1" parent="VrlO5k5-_3cySzWohYTz-576">
          <mxGeometry width="340" height="23" as="geometry">
            <mxRectangle width="340" height="23" as="alternateBounds" />
          </mxGeometry>
        </mxCell>
        <mxCell id="VrlO5k5-_3cySzWohYTz-578" style="shape=tableRow;horizontal=0;startSize=0;swimlaneHead=0;swimlaneBody=0;strokeColor=inherit;top=0;left=0;bottom=0;right=0;collapsible=0;dropTarget=0;fillColor=none;points=[[0,0.5],[1,0.5]];portConstraint=eastwest;fontSize=16;" vertex="1" parent="VrlO5k5-_3cySzWohYTz-131">
          <mxGeometry y="314" width="340" height="23" as="geometry" />
        </mxCell>
        <mxCell id="VrlO5k5-_3cySzWohYTz-579" style="shape=partialRectangle;html=1;whiteSpace=wrap;connectable=0;strokeColor=inherit;overflow=hidden;fillColor=none;top=0;left=0;bottom=0;right=0;pointerEvents=1;fontSize=16;" vertex="1" parent="VrlO5k5-_3cySzWohYTz-578">
          <mxGeometry width="340" height="23" as="geometry">
            <mxRectangle width="340" height="23" as="alternateBounds" />
          </mxGeometry>
        </mxCell>
        <mxCell id="VrlO5k5-_3cySzWohYTz-580" style="shape=tableRow;horizontal=0;startSize=0;swimlaneHead=0;swimlaneBody=0;strokeColor=inherit;top=0;left=0;bottom=0;right=0;collapsible=0;dropTarget=0;fillColor=none;points=[[0,0.5],[1,0.5]];portConstraint=eastwest;fontSize=16;" vertex="1" parent="VrlO5k5-_3cySzWohYTz-131">
          <mxGeometry y="337" width="340" height="24" as="geometry" />
        </mxCell>
        <mxCell id="VrlO5k5-_3cySzWohYTz-581" style="shape=partialRectangle;html=1;whiteSpace=wrap;connectable=0;strokeColor=inherit;overflow=hidden;fillColor=none;top=0;left=0;bottom=0;right=0;pointerEvents=1;fontSize=16;" vertex="1" parent="VrlO5k5-_3cySzWohYTz-580">
          <mxGeometry width="340" height="24" as="geometry">
            <mxRectangle width="340" height="24" as="alternateBounds" />
          </mxGeometry>
        </mxCell>
        <mxCell id="VrlO5k5-_3cySzWohYTz-136" value="" style="shape=tableRow;horizontal=0;startSize=0;swimlaneHead=0;swimlaneBody=0;strokeColor=inherit;top=0;left=0;bottom=0;right=0;collapsible=0;dropTarget=0;fillColor=none;points=[[0,0.5],[1,0.5]];portConstraint=eastwest;fontSize=16;" vertex="1" parent="VrlO5k5-_3cySzWohYTz-131">
          <mxGeometry y="361" width="340" height="24" as="geometry" />
        </mxCell>
        <mxCell id="VrlO5k5-_3cySzWohYTz-183" style="shape=partialRectangle;html=1;whiteSpace=wrap;connectable=0;strokeColor=inherit;overflow=hidden;fillColor=none;top=0;left=0;bottom=0;right=0;pointerEvents=1;fontSize=16;" vertex="1" parent="VrlO5k5-_3cySzWohYTz-136">
          <mxGeometry width="340" height="24" as="geometry">
            <mxRectangle width="340" height="24" as="alternateBounds" />
          </mxGeometry>
        </mxCell>
        <mxCell id="VrlO5k5-_3cySzWohYTz-140" value="" style="shape=tableRow;horizontal=0;startSize=0;swimlaneHead=0;swimlaneBody=0;strokeColor=inherit;top=0;left=0;bottom=0;right=0;collapsible=0;dropTarget=0;fillColor=none;points=[[0,0.5],[1,0.5]];portConstraint=eastwest;fontSize=16;" vertex="1" parent="VrlO5k5-_3cySzWohYTz-131">
          <mxGeometry y="385" width="340" height="21" as="geometry" />
        </mxCell>
        <mxCell id="VrlO5k5-_3cySzWohYTz-184" style="shape=partialRectangle;html=1;whiteSpace=wrap;connectable=0;strokeColor=inherit;overflow=hidden;fillColor=none;top=0;left=0;bottom=0;right=0;pointerEvents=1;fontSize=16;" vertex="1" parent="VrlO5k5-_3cySzWohYTz-140">
          <mxGeometry width="340" height="21" as="geometry">
            <mxRectangle width="340" height="21" as="alternateBounds" />
          </mxGeometry>
        </mxCell>
        <mxCell id="VrlO5k5-_3cySzWohYTz-554" style="shape=tableRow;horizontal=0;startSize=0;swimlaneHead=0;swimlaneBody=0;strokeColor=inherit;top=0;left=0;bottom=0;right=0;collapsible=0;dropTarget=0;fillColor=none;points=[[0,0.5],[1,0.5]];portConstraint=eastwest;fontSize=16;" vertex="1" parent="VrlO5k5-_3cySzWohYTz-131">
          <mxGeometry y="406" width="340" height="21" as="geometry" />
        </mxCell>
        <mxCell id="VrlO5k5-_3cySzWohYTz-555" style="shape=partialRectangle;html=1;whiteSpace=wrap;connectable=0;strokeColor=inherit;overflow=hidden;fillColor=none;top=0;left=0;bottom=0;right=0;pointerEvents=1;fontSize=16;" vertex="1" parent="VrlO5k5-_3cySzWohYTz-554">
          <mxGeometry width="340" height="21" as="geometry">
            <mxRectangle width="340" height="21" as="alternateBounds" />
          </mxGeometry>
        </mxCell>
        <mxCell id="VrlO5k5-_3cySzWohYTz-556" style="shape=tableRow;horizontal=0;startSize=0;swimlaneHead=0;swimlaneBody=0;strokeColor=inherit;top=0;left=0;bottom=0;right=0;collapsible=0;dropTarget=0;fillColor=none;points=[[0,0.5],[1,0.5]];portConstraint=eastwest;fontSize=16;" vertex="1" parent="VrlO5k5-_3cySzWohYTz-131">
          <mxGeometry y="427" width="340" height="21" as="geometry" />
        </mxCell>
        <mxCell id="VrlO5k5-_3cySzWohYTz-557" style="shape=partialRectangle;html=1;whiteSpace=wrap;connectable=0;strokeColor=inherit;overflow=hidden;fillColor=none;top=0;left=0;bottom=0;right=0;pointerEvents=1;fontSize=16;" vertex="1" parent="VrlO5k5-_3cySzWohYTz-556">
          <mxGeometry width="340" height="21" as="geometry">
            <mxRectangle width="340" height="21" as="alternateBounds" />
          </mxGeometry>
        </mxCell>
        <mxCell id="VrlO5k5-_3cySzWohYTz-558" style="shape=tableRow;horizontal=0;startSize=0;swimlaneHead=0;swimlaneBody=0;strokeColor=inherit;top=0;left=0;bottom=0;right=0;collapsible=0;dropTarget=0;fillColor=none;points=[[0,0.5],[1,0.5]];portConstraint=eastwest;fontSize=16;" vertex="1" parent="VrlO5k5-_3cySzWohYTz-131">
          <mxGeometry y="448" width="340" height="20" as="geometry" />
        </mxCell>
        <mxCell id="VrlO5k5-_3cySzWohYTz-559" style="shape=partialRectangle;html=1;whiteSpace=wrap;connectable=0;strokeColor=inherit;overflow=hidden;fillColor=none;top=0;left=0;bottom=0;right=0;pointerEvents=1;fontSize=16;" vertex="1" parent="VrlO5k5-_3cySzWohYTz-558">
          <mxGeometry width="340" height="20" as="geometry">
            <mxRectangle width="340" height="20" as="alternateBounds" />
          </mxGeometry>
        </mxCell>
        <mxCell id="VrlO5k5-_3cySzWohYTz-560" style="shape=tableRow;horizontal=0;startSize=0;swimlaneHead=0;swimlaneBody=0;strokeColor=inherit;top=0;left=0;bottom=0;right=0;collapsible=0;dropTarget=0;fillColor=none;points=[[0,0.5],[1,0.5]];portConstraint=eastwest;fontSize=16;" vertex="1" parent="VrlO5k5-_3cySzWohYTz-131">
          <mxGeometry y="468" width="340" height="22" as="geometry" />
        </mxCell>
        <mxCell id="VrlO5k5-_3cySzWohYTz-561" style="shape=partialRectangle;html=1;whiteSpace=wrap;connectable=0;strokeColor=inherit;overflow=hidden;fillColor=none;top=0;left=0;bottom=0;right=0;pointerEvents=1;fontSize=16;" vertex="1" parent="VrlO5k5-_3cySzWohYTz-560">
          <mxGeometry width="340" height="22" as="geometry">
            <mxRectangle width="340" height="22" as="alternateBounds" />
          </mxGeometry>
        </mxCell>
        <mxCell id="VrlO5k5-_3cySzWohYTz-562" style="shape=tableRow;horizontal=0;startSize=0;swimlaneHead=0;swimlaneBody=0;strokeColor=inherit;top=0;left=0;bottom=0;right=0;collapsible=0;dropTarget=0;fillColor=none;points=[[0,0.5],[1,0.5]];portConstraint=eastwest;fontSize=16;" vertex="1" parent="VrlO5k5-_3cySzWohYTz-131">
          <mxGeometry y="490" width="340" height="20" as="geometry" />
        </mxCell>
        <mxCell id="VrlO5k5-_3cySzWohYTz-563" style="shape=partialRectangle;html=1;whiteSpace=wrap;connectable=0;strokeColor=inherit;overflow=hidden;fillColor=none;top=0;left=0;bottom=0;right=0;pointerEvents=1;fontSize=16;" vertex="1" parent="VrlO5k5-_3cySzWohYTz-562">
          <mxGeometry width="340" height="20" as="geometry">
            <mxRectangle width="340" height="20" as="alternateBounds" />
          </mxGeometry>
        </mxCell>
        <mxCell id="VrlO5k5-_3cySzWohYTz-564" style="shape=tableRow;horizontal=0;startSize=0;swimlaneHead=0;swimlaneBody=0;strokeColor=inherit;top=0;left=0;bottom=0;right=0;collapsible=0;dropTarget=0;fillColor=none;points=[[0,0.5],[1,0.5]];portConstraint=eastwest;fontSize=16;" vertex="1" parent="VrlO5k5-_3cySzWohYTz-131">
          <mxGeometry y="510" width="340" height="22" as="geometry" />
        </mxCell>
        <mxCell id="VrlO5k5-_3cySzWohYTz-565" style="shape=partialRectangle;html=1;whiteSpace=wrap;connectable=0;strokeColor=inherit;overflow=hidden;fillColor=none;top=0;left=0;bottom=0;right=0;pointerEvents=1;fontSize=16;" vertex="1" parent="VrlO5k5-_3cySzWohYTz-564">
          <mxGeometry width="340" height="22" as="geometry">
            <mxRectangle width="340" height="22" as="alternateBounds" />
          </mxGeometry>
        </mxCell>
        <mxCell id="VrlO5k5-_3cySzWohYTz-566" style="shape=tableRow;horizontal=0;startSize=0;swimlaneHead=0;swimlaneBody=0;strokeColor=inherit;top=0;left=0;bottom=0;right=0;collapsible=0;dropTarget=0;fillColor=none;points=[[0,0.5],[1,0.5]];portConstraint=eastwest;fontSize=16;" vertex="1" parent="VrlO5k5-_3cySzWohYTz-131">
          <mxGeometry y="532" width="340" height="21" as="geometry" />
        </mxCell>
        <mxCell id="VrlO5k5-_3cySzWohYTz-567" style="shape=partialRectangle;html=1;whiteSpace=wrap;connectable=0;strokeColor=inherit;overflow=hidden;fillColor=none;top=0;left=0;bottom=0;right=0;pointerEvents=1;fontSize=16;" vertex="1" parent="VrlO5k5-_3cySzWohYTz-566">
          <mxGeometry width="340" height="21" as="geometry">
            <mxRectangle width="340" height="21" as="alternateBounds" />
          </mxGeometry>
        </mxCell>
        <mxCell id="VrlO5k5-_3cySzWohYTz-568" style="shape=tableRow;horizontal=0;startSize=0;swimlaneHead=0;swimlaneBody=0;strokeColor=inherit;top=0;left=0;bottom=0;right=0;collapsible=0;dropTarget=0;fillColor=none;points=[[0,0.5],[1,0.5]];portConstraint=eastwest;fontSize=16;" vertex="1" parent="VrlO5k5-_3cySzWohYTz-131">
          <mxGeometry y="553" width="340" height="19" as="geometry" />
        </mxCell>
        <mxCell id="VrlO5k5-_3cySzWohYTz-569" style="shape=partialRectangle;html=1;whiteSpace=wrap;connectable=0;strokeColor=inherit;overflow=hidden;fillColor=none;top=0;left=0;bottom=0;right=0;pointerEvents=1;fontSize=16;" vertex="1" parent="VrlO5k5-_3cySzWohYTz-568">
          <mxGeometry width="340" height="19" as="geometry">
            <mxRectangle width="340" height="19" as="alternateBounds" />
          </mxGeometry>
        </mxCell>
        <mxCell id="VrlO5k5-_3cySzWohYTz-570" style="shape=tableRow;horizontal=0;startSize=0;swimlaneHead=0;swimlaneBody=0;strokeColor=inherit;top=0;left=0;bottom=0;right=0;collapsible=0;dropTarget=0;fillColor=none;points=[[0,0.5],[1,0.5]];portConstraint=eastwest;fontSize=16;" vertex="1" parent="VrlO5k5-_3cySzWohYTz-131">
          <mxGeometry y="572" width="340" height="22" as="geometry" />
        </mxCell>
        <mxCell id="VrlO5k5-_3cySzWohYTz-571" value="rn" style="shape=partialRectangle;html=1;whiteSpace=wrap;connectable=0;strokeColor=inherit;overflow=hidden;fillColor=none;top=0;left=0;bottom=0;right=0;pointerEvents=1;fontSize=16;" vertex="1" parent="VrlO5k5-_3cySzWohYTz-570">
          <mxGeometry width="340" height="22" as="geometry">
            <mxRectangle width="340" height="22" as="alternateBounds" />
          </mxGeometry>
        </mxCell>
        <mxCell id="VrlO5k5-_3cySzWohYTz-582" value="" style="shape=table;startSize=0;container=1;collapsible=0;childLayout=tableLayout;fontSize=16;fillColor=#dae8fc;strokeColor=#6c8ebf;" vertex="1" parent="1">
          <mxGeometry x="-150" y="390" width="20" height="160" as="geometry" />
        </mxCell>
        <mxCell id="VrlO5k5-_3cySzWohYTz-583" value="" style="shape=tableRow;horizontal=0;startSize=0;swimlaneHead=0;swimlaneBody=0;strokeColor=inherit;top=0;left=0;bottom=0;right=0;collapsible=0;dropTarget=0;fillColor=none;points=[[0,0.5],[1,0.5]];portConstraint=eastwest;fontSize=16;" vertex="1" parent="VrlO5k5-_3cySzWohYTz-582">
          <mxGeometry width="20" height="40" as="geometry" />
        </mxCell>
        <mxCell id="VrlO5k5-_3cySzWohYTz-584" value="0" style="shape=partialRectangle;html=1;whiteSpace=wrap;connectable=0;strokeColor=inherit;overflow=hidden;fillColor=none;top=0;left=0;bottom=0;right=0;pointerEvents=1;fontSize=16;" vertex="1" parent="VrlO5k5-_3cySzWohYTz-583">
          <mxGeometry width="20" height="40" as="geometry">
            <mxRectangle width="20" height="40" as="alternateBounds" />
          </mxGeometry>
        </mxCell>
        <mxCell id="VrlO5k5-_3cySzWohYTz-587" value="" style="shape=tableRow;horizontal=0;startSize=0;swimlaneHead=0;swimlaneBody=0;strokeColor=inherit;top=0;left=0;bottom=0;right=0;collapsible=0;dropTarget=0;fillColor=none;points=[[0,0.5],[1,0.5]];portConstraint=eastwest;fontSize=16;" vertex="1" parent="VrlO5k5-_3cySzWohYTz-582">
          <mxGeometry y="40" width="20" height="40" as="geometry" />
        </mxCell>
        <mxCell id="VrlO5k5-_3cySzWohYTz-588" value="1" style="shape=partialRectangle;html=1;whiteSpace=wrap;connectable=0;strokeColor=inherit;overflow=hidden;fillColor=none;top=0;left=0;bottom=0;right=0;pointerEvents=1;fontSize=16;" vertex="1" parent="VrlO5k5-_3cySzWohYTz-587">
          <mxGeometry width="20" height="40" as="geometry">
            <mxRectangle width="20" height="40" as="alternateBounds" />
          </mxGeometry>
        </mxCell>
        <mxCell id="VrlO5k5-_3cySzWohYTz-591" value="" style="shape=tableRow;horizontal=0;startSize=0;swimlaneHead=0;swimlaneBody=0;strokeColor=inherit;top=0;left=0;bottom=0;right=0;collapsible=0;dropTarget=0;fillColor=none;points=[[0,0.5],[1,0.5]];portConstraint=eastwest;fontSize=16;" vertex="1" parent="VrlO5k5-_3cySzWohYTz-582">
          <mxGeometry y="80" width="20" height="40" as="geometry" />
        </mxCell>
        <mxCell id="VrlO5k5-_3cySzWohYTz-592" value="2" style="shape=partialRectangle;html=1;whiteSpace=wrap;connectable=0;strokeColor=inherit;overflow=hidden;fillColor=none;top=0;left=0;bottom=0;right=0;pointerEvents=1;fontSize=16;" vertex="1" parent="VrlO5k5-_3cySzWohYTz-591">
          <mxGeometry width="20" height="40" as="geometry">
            <mxRectangle width="20" height="40" as="alternateBounds" />
          </mxGeometry>
        </mxCell>
        <mxCell id="VrlO5k5-_3cySzWohYTz-595" style="shape=tableRow;horizontal=0;startSize=0;swimlaneHead=0;swimlaneBody=0;strokeColor=inherit;top=0;left=0;bottom=0;right=0;collapsible=0;dropTarget=0;fillColor=none;points=[[0,0.5],[1,0.5]];portConstraint=eastwest;fontSize=16;" vertex="1" parent="VrlO5k5-_3cySzWohYTz-582">
          <mxGeometry y="120" width="20" height="40" as="geometry" />
        </mxCell>
        <mxCell id="VrlO5k5-_3cySzWohYTz-596" value="3" style="shape=partialRectangle;html=1;whiteSpace=wrap;connectable=0;strokeColor=inherit;overflow=hidden;fillColor=none;top=0;left=0;bottom=0;right=0;pointerEvents=1;fontSize=16;" vertex="1" parent="VrlO5k5-_3cySzWohYTz-595">
          <mxGeometry width="20" height="40" as="geometry">
            <mxRectangle width="20" height="40" as="alternateBounds" />
          </mxGeometry>
        </mxCell>
        <mxCell id="VrlO5k5-_3cySzWohYTz-598" value="" style="endArrow=classic;html=1;rounded=0;entryX=0;entryY=0.5;entryDx=0;entryDy=0;" edge="1" parent="1" target="VrlO5k5-_3cySzWohYTz-301">
          <mxGeometry width="50" height="50" relative="1" as="geometry">
            <mxPoint x="-130" y="410" as="sourcePoint" />
            <mxPoint x="-80" y="360" as="targetPoint" />
          </mxGeometry>
        </mxCell>
        <mxCell id="VrlO5k5-_3cySzWohYTz-599" value="" style="endArrow=classic;html=1;rounded=0;entryX=0;entryY=0.5;entryDx=0;entryDy=0;" edge="1" parent="1" target="VrlO5k5-_3cySzWohYTz-288">
          <mxGeometry width="50" height="50" relative="1" as="geometry">
            <mxPoint x="-130" y="450" as="sourcePoint" />
            <mxPoint x="-80" y="400" as="targetPoint" />
          </mxGeometry>
        </mxCell>
        <mxCell id="VrlO5k5-_3cySzWohYTz-600" value="" style="endArrow=classic;html=1;rounded=0;entryX=0;entryY=0.5;entryDx=0;entryDy=0;" edge="1" parent="1" target="VrlO5k5-_3cySzWohYTz-275">
          <mxGeometry width="50" height="50" relative="1" as="geometry">
            <mxPoint x="-130" y="490" as="sourcePoint" />
            <mxPoint x="-80" y="440" as="targetPoint" />
          </mxGeometry>
        </mxCell>
        <mxCell id="VrlO5k5-_3cySzWohYTz-601" value="" style="endArrow=classic;html=1;rounded=0;entryX=0;entryY=0.5;entryDx=0;entryDy=0;" edge="1" parent="1" target="VrlO5k5-_3cySzWohYTz-262">
          <mxGeometry width="50" height="50" relative="1" as="geometry">
            <mxPoint x="-130" y="530" as="sourcePoint" />
            <mxPoint x="-80" y="480" as="targetPoint" />
          </mxGeometry>
        </mxCell>
        <mxCell id="VrlO5k5-_3cySzWohYTz-602" value="&lt;font style=&quot;font-size: 20px;&quot;&gt;比如outData[0], 它的索引值可以是r0.&lt;br&gt;而outData[1],它对应的 indexing CRF值就一个是r4 , outData[index]对应的indexing CRF的值应该是 index&amp;nbsp; &amp;lt;&amp;lt; 2 (index * 4)&amp;nbsp;&amp;nbsp;&lt;/font&gt;" style="text;html=1;strokeColor=#6c8ebf;fillColor=#dae8fc;align=left;verticalAlign=middle;whiteSpace=wrap;rounded=0;strokeWidth=4;" vertex="1" parent="1">
          <mxGeometry x="-430" y="30" width="370" height="192" as="geometry" />
        </mxCell>
      </root>
    </mxGraphModel>
  </diagram>
</mxfile>
